<svg xmlns="http://www.w3.org/2000/svg" viewBox="0 0 87.98 66.61"><defs><style>.cls-1,.cls-4{fill:#bfbfbf;}.cls-2{fill:none;}.cls-2,.cls-3,.cls-4{stroke:#000;stroke-miterlimit:10;stroke-width:2px;}.cls-3{fill:#fff;}</style></defs><g id="Layer_2" data-name="Layer 2"><g id="Layer_2-2" data-name="Layer 2"><polygon class="cls-1" points="1.81 8.94 17.91 36.61 12.77 47.81 1 28.41 1.81 8.94"/><polygon class="cls-1" points="43.5 64.29 50.15 55.13 83.94 55.35 67.05 65.61 43.5 66.09 43.5 64.29"/><polygon class="cls-1" points="17.02 51.88 38.06 63.04 25.5 60.83 17.02 51.88"/><polygon class="cls-1" points="28.4 20.91 46.35 11.23 49.82 12.98 41.44 28.43 28.4 20.91"/><polygon class="cls-1" points="54.66 14.86 59.14 17.45 58.84 37.59 45.48 30.76 54.66 14.86"/><polygon class="cls-2" points="1 5.11 86 54.12 66.67 65.61 42.54 65.61 25.5 60.83 12.1 48.19 1 27.9 1 5.11"/><line class="cls-2" x1="1" y1="26.9" x2="66.67" y2="64.61"/><line class="cls-2" x1="1" y1="7.6" x2="19.14" y2="37.32"/><line class="cls-2" x1="43.5" y1="51.31" x2="62.86" y2="40.78"/><line class="cls-2" x1="57.6" y1="59.41" x2="62.86" y2="40.78"/><line class="cls-2" x1="76.66" y1="49.09" x2="46.91" y2="65.61"/><line class="cls-2" x1="67.22" y1="64.66" x2="76.22" y2="49.14"/><line class="cls-2" x1="1" y1="26.9" x2="10.07" y2="11.24"/><line class="cls-2" x1="23.97" y1="19.07" x2="24.36" y2="54.51"/><line class="cls-2" x1="43.5" y1="30.39" x2="42.54" y2="65.61"/><line class="cls-2" x1="11.8" y1="12.05" x2="10.29" y2="44.78"/><line class="cls-2" x1="10.07" y1="32.11" x2="23.97" y2="19.07"/><line class="cls-2" x1="12.1" y1="48.19" x2="43.5" y2="30.39"/><line class="cls-2" x1="42.54" y1="65.61" x2="12.1" y2="48.19"/><line class="cls-2" x1="19.14" y1="37.32" x2="12.1" y2="48.19"/><line class="cls-2" x1="50.15" y1="55.13" x2="42.54" y2="65.61"/><line class="cls-2" x1="83.94" y1="55.35" x2="50.15" y2="55.13"/><line class="cls-2" x1="23.97" y1="19.07" x2="50.97" y2="3.39"/><line class="cls-2" x1="28.4" y1="20.91" x2="47.71" y2="10.38"/><line class="cls-2" x1="63.03" y1="10.38" x2="62.86" y2="40.78"/><line class="cls-2" x1="59.01" y1="16.6" x2="58.83" y2="38.46"/><rect class="cls-3" x="47.49" y="5.86" width="4.67" height="25.44" transform="translate(15.96 -22.42) rotate(30)"/><rect class="cls-4" x="55.22" y="2.37" width="5.49" height="5.49" transform="translate(10.32 -28.3) rotate(30)"/><line class="cls-2" x1="33.83" y1="46.85" x2="27.8" y2="56.9"/><line class="cls-2" x1="30.16" y1="58.67" x2="43.54" y2="51.48"/><rect class="cls-3" x="47.69" y="6.54" width="14.37" height="7.84" transform="translate(12.58 -26.04) rotate(30)"/></g></g></svg>