<svg xmlns="http://www.w3.org/2000/svg" viewBox="0 0 255.36 335.75"><g id="Layer_2" data-name="Layer 2"><g id="Layer_1-2" data-name="Layer 1"><path d="M176.84,208.1c3.91,3.86,3.27,10.61-1.58,13.2A108.35,108.35,0,0,1,28.54,74.58c2.58-4.8,9.34-5.44,13.19-1.58l61.65,61.64,14.46-14.46a15.41,15.41,0,0,1-.85-4.12A16.89,16.89,0,1,1,133.88,133a15.48,15.48,0,0,1-4.12-.84L115.3,146.57Zm78.51-74.61a7.07,7.07,0,0,1-6.61,7.49H234.42a7,7,0,0,1-6.92-6.61C224.23,77.29,179,31.05,122.59,28a7,7,0,0,1-6.52-7V7.05a7,7,0,0,1,7.05-7h.34C194.55,3.79,251.65,61.57,255.35,133.49Zm-41.78-.13A7.16,7.16,0,0,1,207,141H192.54a7,7,0,0,1-6.92-6.48c-3-33.91-29.64-61.17-63.07-63.95a7,7,0,0,1-6.44-7V49.42a7.05,7.05,0,0,1,7-7.1h.52c47.92,3.7,86.27,42.5,89.93,91Z"/><polygon points="68.56 159.25 57.68 281.86 31.56 281.86 31.56 310.15 0 310.15 0 335.75 164.87 335.75 164.87 310.15 134.4 310.15 134.4 285.23 108.67 285.23 101.21 188.89 68.56 159.25"/></g></g></svg>