<svg xmlns="http://www.w3.org/2000/svg" xmlns:xlink="http://www.w3.org/1999/xlink" viewBox="0 0 438.52 406.4"><defs><style>.cls-1,.cls-4{fill:none;}.cls-2{fill:#fff;}.cls-3{clip-path:url(#clip-path);}.cls-4{stroke:#000;stroke-miterlimit:10;stroke-width:23px;}</style><clipPath id="clip-path"><circle class="cls-1" cx="184.85" cy="211.25" r="183.99"/></clipPath></defs><g id="Layer_2" data-name="Layer 2"><g id="Layer_1-2" data-name="Layer 1"><circle class="cls-2" cx="431.21" cy="300.51" r="7.31"/><g class="cls-3"><path d="M259.72,257.28c3.91,3.85,3.27,10.61-1.58,13.2A108.35,108.35,0,0,1,111.42,123.76c2.58-4.81,9.34-5.44,13.19-1.59l61.65,61.65,14.46-14.46a15.49,15.49,0,0,1-.85-4.12,16.89,16.89,0,1,1,16.89,16.89,15.49,15.49,0,0,1-4.12-.85l-14.46,14.46Zm78.51-74.61a7.07,7.07,0,0,1-6.61,7.49H317.3a7,7,0,0,1-6.92-6.61c-3.27-57.08-48.54-103.32-104.91-106.41a7,7,0,0,1-6.52-7V56.23a7,7,0,0,1,7.05-7h.35C277.43,53,334.53,110.75,338.23,182.67Zm-41.78-.13a7.16,7.16,0,0,1-6.58,7.62H275.42a7,7,0,0,1-6.92-6.48c-3-33.91-29.64-61.17-63.07-63.95a7,7,0,0,1-6.44-7V98.59a7,7,0,0,1,7-7.09h.52c47.92,3.7,86.27,42.5,89.93,91Z"/><polygon points="151.44 208.43 140.56 331.04 114.44 331.04 114.44 359.33 82.88 359.33 82.88 384.93 247.75 384.93 247.75 359.33 217.28 359.33 217.28 334.4 191.55 334.4 184.09 238.07 151.44 208.43"/></g><circle class="cls-4" cx="203.2" cy="203.2" r="191.7"/></g></g></svg>