<?xml version="1.0" encoding="utf-8"?>
<!-- Generator: Adobe Illustrator 24.2.3, SVG Export Plug-In . SVG Version: 6.00 Build 0)  -->
<svg version="1.1" id="Layer_1" xmlns="http://www.w3.org/2000/svg" xmlns:xlink="http://www.w3.org/1999/xlink" x="0px" y="0px"
	 viewBox="0 0 414.4 414.4" style="enable-background:new 0 0 414.4 414.4;" xml:space="preserve">
<style type="text/css">
	.st0{clip-path:url(#SVGID_2_);}
	.st1{fill:#FFFFFF;stroke:#FFFFFF;stroke-miterlimit:10;}
	.st2{fill:none;stroke:#FFFFFF;stroke-width:31;stroke-miterlimit:10;}
</style>
<g id="Layer_2_1_">
	<g id="Layer_1-2">
		<g>
			<defs>
				<circle id="SVGID_1_" cx="188.9" cy="215.2" r="184"/>
			</defs>
			<clipPath id="SVGID_2_">
				<use xlink:href="#SVGID_1_"  style="overflow:visible;"/>
			</clipPath>
			<g class="st0">
				<path class="st1" d="M263.7,261.3c3.9,3.9,3.3,10.6-1.6,13.2c-52.7,28.3-118.4,8.5-146.7-44.2c-17.2-32-17.2-70.5,0-102.5
					c2.6-4.8,9.3-5.4,13.2-1.6l61.7,61.7l14.5-14.5c-0.5-1.3-0.8-2.7-0.9-4.1c0-9.3,7.6-16.9,16.9-16.9s16.9,7.6,16.9,16.9
					s-7.6,16.9-16.9,16.9c-1.4-0.1-2.8-0.4-4.1-0.9l-14.5,14.5L263.7,261.3z M342.2,186.7c0.2,3.9-2.7,7.2-6.6,7.5h-14.3
					c-3.7,0-6.7-2.9-6.9-6.6c-3.3-57.1-48.5-103.3-104.9-106.4c-3.7-0.3-6.5-3.3-6.5-7V60.2c0-3.9,3.1-7,7-7c0,0,0,0,0.1,0h0.4
					C281.4,57,338.5,114.8,342.2,186.7z M300.5,186.5c0.3,3.9-2.7,7.3-6.6,7.6h-14.5c-3.6,0-6.6-2.8-6.9-6.5
					c-3-33.9-29.6-61.2-63.1-63.9c-3.6-0.3-6.5-3.3-6.4-7v-14.1c0-3.9,3-7,6.9-7.1c0,0,0.1,0,0.1,0h0.5
					C258.4,99.2,296.8,138,300.5,186.5L300.5,186.5z"/>
				<polygon class="st1" points="155.4,212.4 144.6,335 118.4,335 118.4,363.3 86.9,363.3 86.9,388.9 251.8,388.9 251.8,363.3 
					221.3,363.3 221.3,338.4 195.6,338.4 188.1,242.1 				"/>
			</g>
			<use xlink:href="#SVGID_1_"  style="overflow:visible;fill:none;stroke:#FFFFFF;stroke-miterlimit:10;"/>
		</g>
		<circle class="st2" cx="207.2" cy="207.2" r="191.7"/>
	</g>
</g>
</svg>
