<?xml version="1.0" encoding="utf-8"?>
<!-- Generator: Adobe Illustrator 24.2.3, SVG Export Plug-In . SVG Version: 6.00 Build 0)  -->
<svg version="1.1" id="Layer_1" focusable="false" xmlns="http://www.w3.org/2000/svg" xmlns:xlink="http://www.w3.org/1999/xlink"
	 x="0px" y="0px" viewBox="0 0 512 512" style="enable-background:new 0 0 512 512;" xml:space="preserve">
<style type="text/css">
	.st0{fill:#1D1F00;}
</style>
<path class="st0" d="M305.4,462.6c7.4,7.3,6.2,20.1-3,25c-77.7,41.8-176.7,29.9-242.3-35.7c-65.6-65.6-77.5-164.5-35.7-242.3
	c4.9-9.1,17.7-10.3,25-3l116.8,116.8l27.4-27.4c-0.7-2.6-1.6-5-1.6-7.8c0-17.7,14.3-32,32-32c17.7,0,32,14.3,32,32
	c0,17.7-14.3,32-32,32c-2.8,0-5.2-0.9-7.8-1.6L188.8,346L305.4,462.6z M512,303.1c0.5,8.9-6.3,16.5-15.2,17c-0.3,0-0.5,0-0.8,0
	h-32.1c-8.4,0-15.4-6.6-15.9-15C440.5,175.5,336.5,70.5,207,63.5c-8.4-0.4-15-7.5-15-15.9V16c0-8.9,7.3-16.1,16.2-16
	c0.3,0,0.6,0,0.8,0C372.3,8.6,503.5,139.8,512,303.1z M416,302.8c0.6,8.9-6.2,16.7-15.1,17.3c-0.3,0-0.7,0-1,0h-32.2
	c-8.3-0.1-15.2-6.4-15.9-14.7c-6.9-77-68.1-138.9-144.9-145.2c-8.3-0.6-14.8-7.5-14.8-15.9v-32.1c0-8.9,7.2-16.1,16.1-16.1
	c0.4,0,0.8,0,1.2,0C319.5,104.5,407.6,192.6,416,302.8L416,302.8z"/>
</svg>
