<svg xmlns="http://www.w3.org/2000/svg" xmlns:xlink="http://www.w3.org/1999/xlink" viewBox="0 0 414.4 414.4"><defs><style>.cls-1,.cls-4{fill:none;}.cls-1,.cls-3,.cls-4{stroke:#fff;stroke-miterlimit:10;}.cls-2{clip-path:url(#clip-path);}.cls-3{fill:#fff;}.cls-4{stroke-width:31px;}</style><clipPath id="clip-path"><circle class="cls-1" cx="188.85" cy="215.25" r="183.99"/></clipPath></defs><g id="Layer_2" data-name="Layer 2"><g id="Layer_1-2" data-name="Layer 1"><g id="Layer_2-2" data-name="Layer 2"><g id="Layer_1-2-2" data-name="Layer 1-2"><g class="cls-2"><path class="cls-3" d="M263.72,261.28c3.91,3.85,3.27,10.61-1.58,13.2A108.35,108.35,0,0,1,115.42,127.76c2.58-4.81,9.34-5.44,13.19-1.59l61.65,61.65,14.46-14.46a15.26,15.26,0,0,1-.85-4.12,16.89,16.89,0,1,1,16.89,16.89,15.26,15.26,0,0,1-4.12-.85l-14.46,14.46Zm78.51-74.61a7.07,7.07,0,0,1-6.61,7.49H321.3a7,7,0,0,1-6.92-6.61c-3.27-57.08-48.54-103.32-104.91-106.41a7,7,0,0,1-6.52-7V60.23a7,7,0,0,1,7-7h.4C281.43,57,338.53,114.75,342.23,186.67Zm-41.78-.13a7.17,7.17,0,0,1-6.58,7.62H279.42a7,7,0,0,1-6.92-6.48c-3-33.91-29.64-61.17-63.07-63.95a7,7,0,0,1-6.44-7V102.59a7,7,0,0,1,6.91-7.09h.61c47.92,3.7,86.27,42.5,89.93,91Z"/><polygon class="cls-3" points="155.44 212.43 144.56 335.04 118.44 335.04 118.44 363.33 86.88 363.33 86.88 388.93 251.75 388.93 251.75 363.33 221.28 363.33 221.28 338.4 195.55 338.4 188.09 242.07 155.44 212.43"/></g><circle class="cls-1" cx="188.85" cy="215.25" r="183.99"/><circle class="cls-4" cx="207.2" cy="207.2" r="191.7"/></g></g></g></g></svg>